<?xml version="1.0" encoding="UTF-8"?><svg id="Layer_1" xmlns="http://www.w3.org/2000/svg" viewBox="0 0 121.34 114.01"><defs><style>.cls-1{fill:#fff;}</style></defs><path class="cls-1" d="M84.37,64.15l-47.82,18.53c.22,.22,.44,.43,.66,.64l46.51-18.02c.21-.39,.43-.77,.65-1.15Z"/><path class="cls-1" d="M39.2,85.07c.25,.2,.5,.4,.76,.6l41.78-16.19c.14-.35,.29-.71,.45-1.07l-42.98,16.66Z"/><path class="cls-1" d="M80.79,72.36l-38.55,14.94c.29,.19,.58,.37,.88,.56l37.45-14.52c.06-.32,.13-.65,.22-.98Z"/><path class="cls-1" d="M80.38,76.82c-.03-.28-.05-.58-.05-.87l-34.55,13.39c.34,.17,.68,.34,1.03,.5l33.58-13.01Z"/><path class="cls-1" d="M81.38,79.85c-.15-.24-.28-.49-.39-.74l-31.02,12.02c.41,.15,.83,.28,1.24,.41l30.16-11.69Z"/><path class="cls-1" d="M55.15,92.53c.53,.1,1.07,.19,1.61,.27l27.02-10.47c-.26-.17-.53-.36-.79-.59l-27.84,10.79Z"/><path class="cls-1" d="M84.31,85.53c.68-.53,1.34-1.09,1.99-1.67l-24.06,9.32c.86,0,1.72-.04,2.58-.1l19.49-7.55Z"/><path class="cls-1" d="M103.17,39.87c2.7-11.8-1.43-17.74-7.77-9.59,0,0-2.65,3.38-4.23,10.26-.01,.04-.03,.11-.05,.21-.1,.43-.19,.88-.28,1.33-.58,2.7-1.96,8.23-4.49,11.49-2.94,3.79,.17-7.36,1.95-11.68s1.57-10.9-1.73-10.92c-3.3-.01-5.95,6.25-6.89,8.85l.91-6.44-4.73,1.5-1.78,13.88c-.63,3.43-1.44,6.75-2.45,8.89-1.11,2.34-3.22,3.51-2.92,.93,.86-7.51,3.87-22.65,3.87-22.65l-4.53,1.44-.79,4.96c-.36,2.25-1.51,6.46-2.77,7.43-1.07,.83-1.14-1.73-.15-5.73,.84-3.42,1.47-5.95,1.47-5.95l-4.37,1.39-5.27,20.81,.38-19.26-4.69,1.49,.04,9.59c-.03,.37-.06,.8-.09,1.3-.24,3.81-1.39,10.12-2.76,11.75-2.57,3.07-1.55-5.95-1.55-5.95l.25-3.45,1.2-12.32-4.06,1.29-.2,1.84c-.65-.63-1.39-1.06-2.21-1.22-3.22-.63-6.63,2.98-8.51,8.06h0s-.39,.97-.8,1.82c-.69,1.43-1.12,.63-1.07-.45,.04-.86-.01-1.92-.01-1.92h0c-.13-2.62-1.02-4.61-2.99-3.77-3.51,1.51-6.6,7.26-7.76,12.78l1.51-10.11-4.99,1.56-.78,6.88c-.81,7.43-4.43,13.14-4.43,13.14-6.53,8.87-7.86-6.54-6.36-15.59,1.5-9.04,5.45-21.67,10.39-25.19,5.6-3.99,4.34,5.37,4.34,5.37,0,0-3.82-.23-5.11,4.12s1.63,7.11,4.46,5.5c2.17-1.24,4.59-7.28,3.31-14.68-1.5-8.63-8.88-5.09-13.89,.57C5.97,37.74-1.32,51.93,.21,70.94c1.56,19.42,12.38,11.24,15.91-2.19l-1.22,10.78,5.51-1.75s-.29-9.22,2.88-17.01c3.17-7.78,6.29-7.61,5.91-3.44,0,0-2.67-.95-3.68,3.08-.92,3.65,3.41,4.16,5.59-1.29,.26-.65,.48-1.4,.64-2.19,.01,.22,.04,.39,.08,.49,.21,.54,.5,.22,.77-.15,.2-.27,.36-.61,.49-.94-.06,.25-.11,.51-.16,.77-1.35,6.88,.58,14.58,4.53,15.36,2.44,.48,5.08-1.79,7.06-5.21,.3,2.22,1.13,3.67,3.05,2.46,2.58-1.64,3.79-8.05,4.34-12.99l.03,7.47c.01,2.06,2.02,3.52,3.98,2.9l.25-.08c1.3-.41,2.31-1.46,2.67-2.77l3.97-14.89c-.08,.59-.15,2.98,1,2.52,1.08-.43,2.02-1.88,2.5-3.52l-1.67,10.52s-1.31,5.65,2.97,4.48c3.27-.89,4.77-4.32,5.61-7.82l-.74,5.73,5.2-1.64s1.27-15.41,3.34-19.07c2.82-4.98,5.12-3.86,3.27,.3-1.75,3.91-4.49,15.04-1.6,16.88,2.7,1.73,6.03-2.79,7.58-11.65-.06,.57-.11,1.15-.14,1.74-.66,10.23,4.66,8.67,8.87,2.21-1.32,5.58-4.5,18.16-6.97,21.3-3.2,4.08-10.37-2.26,1.26-14.56L6.99,84.75c-1.72,.56-2.57,2.5-1.81,4.14h0c.67,1.44,2.35,2.12,3.83,1.54l80.43-31.17s-10.94,13.98-6.58,20.1c4.36,6.12,12.18-.15,15.11-10.42,2.33-8.15,3.58-22.06,5.98-28.32,3.06-7.97,8.64-13.74,11.95-15.47,0,0-2.52,4.15-2.47,10.36,.05,5.81-.65,8.62-2.63,9.86,0,0,1.06-4.64-2.61-4.86-3.84-.23-4.52,7.42-1.33,9.18,3.19,1.77,10.43-2.35,10.63-12.22,.2-10.02,.8-14.7,3.84-17.19,0,0-12.61,.57-18.17,19.58Zm-59.99,19.16c-1.12,5.7-3.36,10.06-5.02,9.73-1.66-.32-2.09-5.21-.98-10.91,1.12-5.7,3.36-10.06,5.02-9.73,1.66,.32,2.09,5.21,.98,10.91Zm56.36-18.39c-1.71,6.31-4.35,10.95-5.48,10.65-1.13-.31-.67-5.67,1.04-11.98,1.71-6.31,4.01-10.8,5.14-10.5,1.13,.31,1.01,5.52-.7,11.83Z"/><path class="cls-1" d="M68.41,29.2c-.21,1.57,.72,2.98,2.07,3.17,1.35,.18,2.62-.94,2.83-2.51,.21-1.57-.72-2.98-2.07-3.17-1.35-.18-2.62,.94-2.83,2.51Z"/><path class="cls-1" d="M34.65,82.89c-.32-.34-.85-.35-1.18-.03-.34,.32-.35,.85-.03,1.18,6.9,7.31,16.23,11.66,26.27,12.26,.8,.05,1.59,.07,2.38,.07,11.13,0,21.67-4.66,29.2-13.01,.31-.34,.28-.87-.06-1.18-.34-.31-.87-.28-1.18,.06-7.72,8.56-18.75,13.07-30.24,12.39-9.61-.57-18.55-4.74-25.16-11.74Z"/><path class="cls-1" d="M86.9,27.55c.29-.36,.23-.88-.12-1.17-6.4-5.18-14.14-8.17-22.39-8.66-9.35-.56-18.61,2.25-26.08,7.89-7.38,5.58-12.57,13.6-14.63,22.57-.1,.45,.18,.9,.63,1,.06,.01,.13,.02,.19,.02,.38,0,.72-.26,.81-.65,4.12-18,20.51-30.27,38.98-29.17,7.89,.47,15.31,3.34,21.43,8.29,.36,.29,.88,.23,1.17-.12Z"/><path class="cls-1" d="M15.98,25.33c.2,.14,.42,.21,.65,.21,.35,0,.69-.16,.91-.46C28.58,9.7,46.44,1.2,65.31,2.32c16.5,.98,31.52,9.25,41.2,22.68,.36,.5,1.06,.61,1.55,.25,.5-.36,.61-1.06,.25-1.55C98.25,9.72,82.62,1.12,65.44,.1c-9.78-.58-19.57,1.36-28.32,5.63-8.48,4.13-15.88,10.37-21.39,18.04-.36,.5-.25,1.2,.25,1.55Z"/><path class="cls-1" d="M117.36,48.82c-.61,.08-1.04,.63-.97,1.24,.42,3.36,.54,6.79,.33,10.2-.87,14.61-7.38,28-18.32,37.71-10.11,8.97-22.89,13.81-36.29,13.81-1.11,0-2.22-.03-3.33-.1-16-.95-30.73-8.83-40.42-21.62-.37-.49-1.07-.59-1.56-.22-.49,.37-.59,1.07-.22,1.56,10.08,13.31,25.41,21.51,42.07,22.5,1.16,.07,2.32,.1,3.47,.1,6.48,0,12.84-1.09,18.95-3.26,6.95-2.46,13.28-6.2,18.81-11.12,5.54-4.91,10-10.76,13.27-17.36,3.39-6.84,5.33-14.2,5.79-21.88,.21-3.54,.09-7.11-.35-10.61-.08-.61-.63-1.04-1.24-.97Z"/><path class="cls-1" d="M31.82,93.7c-.36,.51-.61,1.02-.76,1.52-.14,.51-.18,.99-.11,1.47,.07,.47,.23,.91,.5,1.33,.27,.42,.64,.79,1.1,1.12,.23,.16,.48,.29,.75,.39,.27,.1,.54,.17,.81,.22,.27,.05,.53,.08,.79,.09,.25,0,.48,0,.68-.01l.37-.52-.22-.15c-.14,.01-.29,.03-.46,.04-.16,.01-.34,.01-.52-.01-.18-.02-.38-.07-.58-.14-.2-.07-.42-.18-.63-.34-.34-.24-.59-.51-.76-.81-.17-.3-.27-.63-.28-.98-.01-.35,.05-.72,.2-1.12,.15-.39,.37-.81,.68-1.24,.29-.41,.59-.75,.9-1.01,.3-.26,.6-.45,.9-.56,.3-.11,.59-.15,.87-.12s.55,.14,.8,.32c.22,.15,.4,.33,.56,.53,.15,.2,.28,.41,.39,.64,.02,.05,.04,.1,.05,.16,.01,.05,.01,.11,0,.17l-.25,1.04,.35,.25,1.12-1.58c-.09-.12-.21-.27-.35-.43-.14-.17-.3-.33-.47-.5-.17-.17-.34-.33-.52-.49-.18-.16-.34-.29-.5-.4-.29-.21-.59-.37-.91-.48-.31-.12-.63-.19-.95-.21-.32-.03-.64,0-.97,.05-.32,.06-.64,.17-.94,.32-.3,.15-.6,.35-.87,.59-.28,.24-.53,.52-.76,.85Z"/><path class="cls-1" d="M41.06,103.36l-.15,.33,3.08,1.43,.15-.33-.39-.41c-.05-.05-.08-.11-.11-.19-.03-.08-.04-.16-.04-.23l.46-7.46-.71-.33-1.16,.89-4.4,4.19c-.12,.12-.26,.17-.43,.16l-.56-.03-.15,.33,2.26,1.05,.15-.33-.74-.66,1.56-1.51,2.29,1.07-.13,2.21-.98-.17Zm-.66-3.59l1.99-1.96h.01s-.07,.8-.07,.8l-.12,2-1.81-.84Z"/><path class="cls-1" d="M52.82,100.25c.06,.02,.11,.05,.13,.09,.02,.05,.04,.1,.04,.16l.12,1.23,.43,.11,.52-1.96-6.08-1.61-.09,.36,.65,.4c.06,.04,.11,.09,.14,.15,.03,.07,.04,.14,.02,.22l-1.51,5.71c-.02,.08-.06,.14-.13,.18-.06,.04-.13,.06-.2,.07l-.77,.03-.09,.35,3.56,.94,.09-.35-.73-.43c-.07-.04-.12-.09-.15-.16-.03-.07-.04-.14-.02-.22l.69-2.61,1.59,.42c.08,.02,.12,.05,.14,.09,.02,.04,.03,.1,.04,.16l.11,.99,.38,.1,.74-2.81-.38-.1-.59,.82s-.07,.08-.11,.11c-.04,.03-.1,.03-.17,0l-1.59-.42,.71-2.7,2.5,.66Z"/><path class="cls-1" d="M55.67,106.98c0,.08-.04,.15-.09,.2-.05,.05-.11,.09-.19,.1l-.75,.17-.03,.36,6.72,.54,.17-2.19-.45-.04-.51,1.28c-.02,.06-.05,.11-.09,.14-.04,.03-.09,.05-.16,.04l-3.03-.24,.24-3.01,1.59,.13c.07,0,.12,.03,.15,.07,.03,.04,.05,.09,.07,.15l.28,.92,.4,.03,.23-2.84-.4-.03-.43,.88c-.03,.05-.06,.1-.09,.13-.03,.03-.09,.04-.16,.04l-1.59-.13,.22-2.7,2.56,.2c.07,0,.11,.03,.14,.07,.03,.04,.05,.09,.07,.15l.33,1.2,.45,.04,.16-2.03-6.27-.5-.03,.37,.71,.28c.07,.02,.13,.07,.17,.13,.04,.06,.06,.13,.06,.21l-.47,5.89Z"/><path class="cls-1" d="M68.73,104.78c-.04,.14-.07,.28-.09,.43-.02,.15-.03,.29-.03,.43,0,.14,.02,.27,.04,.4,.07,.31,.19,.58,.36,.81,.18,.23,.39,.4,.64,.53,.25,.13,.52,.21,.82,.25,.3,.04,.6,.02,.92-.05,.24-.05,.47-.12,.68-.22,.21-.09,.41-.2,.6-.34,.19-.14,.36-.29,.53-.48,.16-.18,.32-.39,.48-.62l.34,.22c.16,.11,.3,.2,.41,.26,.11,.07,.22,.11,.31,.14s.21,.04,.32,.03c.11,0,.25-.03,.42-.06l1.64-.35-.08-.35-.82-.08s-.09-.02-.15-.04c-.06-.02-.12-.05-.18-.07-.06-.03-.12-.06-.18-.09s-.11-.06-.15-.09l-1.07-.68c.07-.15,.14-.3,.2-.43,.07-.14,.13-.28,.19-.42,.06-.14,.12-.29,.18-.45,.06-.16,.11-.33,.15-.51,.02-.08,.06-.16,.09-.25,.04-.08,.09-.15,.15-.19l.61-.34-.08-.35-2.82,.61,.08,.35,1.03,.08c0,.07,0,.16-.01,.28,0,.12-.03,.24-.05,.39-.02,.14-.06,.29-.1,.45-.04,.16-.09,.31-.15,.46l-2.23-1.42,1.19-1.01c.1-.2,.17-.42,.21-.66,.04-.24,.03-.49-.03-.76-.05-.23-.15-.43-.3-.61-.15-.17-.33-.3-.56-.4-.23-.09-.48-.15-.78-.17-.29-.02-.61,.01-.95,.09-.32,.07-.61,.18-.89,.33-.28,.15-.51,.33-.71,.53-.19,.21-.34,.43-.43,.68-.09,.25-.11,.51-.05,.77,.03,.15,.07,.28,.12,.41,.05,.13,.13,.25,.23,.37,.1,.12,.24,.25,.41,.38,.17,.13,.39,.29,.67,.45l-.99,.97c-.06,.11-.11,.24-.16,.38Zm4.44,.83c-.11,.13-.21,.24-.32,.33-.1,.09-.21,.17-.32,.24-.11,.07-.24,.13-.37,.17-.14,.05-.29,.09-.47,.13-.19,.04-.37,.04-.54,0-.17-.05-.32-.12-.45-.22-.13-.1-.25-.23-.34-.37-.09-.15-.15-.3-.19-.46-.03-.16-.06-.31-.08-.46-.02-.15-.03-.3-.02-.43,0-.14,.03-.27,.07-.4,.04-.13,.11-.26,.2-.37l2.83,1.86Zm-3.23-4.71c.02-.13,.07-.25,.13-.36s.14-.2,.25-.27c.1-.07,.22-.13,.34-.15,.13-.03,.26-.03,.37,0,.11,.02,.22,.07,.31,.14,.09,.07,.17,.16,.24,.27,.06,.11,.11,.24,.14,.39,.03,.16,.06,.31,.07,.46,.01,.15,0,.3-.03,.44-.03,.15-.09,.29-.17,.44-.08,.15-.2,.29-.35,.44-.21-.12-.39-.24-.54-.35-.15-.11-.27-.22-.38-.33s-.18-.22-.24-.34c-.06-.11-.1-.24-.13-.38-.03-.13-.03-.27,0-.4Z"/><path class="cls-1" d="M84.14,102.68l-.54,.55,.17,.32,3.1-1.69c.23-.13,.46-.27,.67-.42,.22-.15,.42-.31,.6-.49,.18-.18,.34-.36,.47-.56,.13-.2,.22-.41,.28-.62,.06-.22,.07-.44,.04-.69s-.12-.49-.26-.75c-.13-.24-.3-.43-.5-.57-.2-.14-.43-.23-.68-.28-.25-.04-.52-.04-.81,.01-.29,.05-.59,.15-.89,.29h0c.21-.2,.38-.4,.51-.6,.13-.21,.23-.42,.29-.63,.06-.21,.07-.43,.04-.65-.03-.22-.1-.44-.21-.65-.11-.2-.25-.36-.42-.51-.17-.14-.39-.23-.66-.26-.27-.03-.59,0-.96,.09-.38,.1-.82,.28-1.35,.57l-2.97,1.62,.18,.32,.75-.16c.07-.02,.14-.02,.21,.01,.07,.03,.12,.08,.16,.15l2.83,5.19c.04,.07,.05,.14,.04,.21-.01,.07-.05,.13-.11,.19Zm1.53-4.23c.22-.05,.41-.06,.59-.01,.18,.05,.35,.14,.5,.29,.15,.15,.3,.35,.44,.6,.24,.44,.31,.81,.2,1.12-.11,.31-.37,.58-.8,.81l-.86,.47-1.44-2.63,.64-.35c.26-.14,.5-.24,.71-.29Zm-1.65,.09l-1.34-2.45,.48-.26c.42-.23,.78-.29,1.1-.2,.32,.09,.6,.37,.86,.84,.1,.18,.16,.35,.19,.52,.03,.17,.02,.33-.04,.48-.05,.15-.15,.3-.3,.45-.14,.15-.34,.29-.6,.43l-.36,.2Z"/><path class="cls-1" d="M89.79,91.53c0-.08,.03-.14,.08-.2l.45-.62-.22-.29-2.87,2.19,.22,.29,.72-.27c.06-.03,.13-.03,.21-.02,.07,.01,.14,.05,.18,.12l3.59,4.69c.05,.06,.07,.13,.07,.2,0,.07-.03,.14-.07,.2l-.45,.63,.22,.29,2.87-2.19-.22-.29-.72,.27c-.07,.03-.15,.03-.22,.02-.07-.01-.13-.05-.19-.12l-3.59-4.69c-.05-.06-.07-.13-.06-.21Z"/><path class="cls-1" d="M94.81,85.93c-.16,.1-.33,.22-.5,.34-.17,.13-.34,.26-.51,.41s-.34,.3-.49,.47c-.18,.19-.34,.38-.47,.59-.13,.21-.23,.42-.31,.64-.08,.22-.13,.44-.14,.65-.02,.22,0,.43,.03,.64,.04,.21,.1,.4,.2,.59,.09,.19,.22,.36,.37,.51,.16,.16,.34,.29,.54,.39,.19,.1,.39,.17,.6,.21,.21,.04,.43,.04,.65,.01,.22-.03,.45-.09,.67-.19,.14-.06,.27-.13,.4-.2,.13-.07,.26-.14,.38-.21,.13-.07,.26-.15,.39-.22,.13-.07,.27-.14,.41-.2,.16-.07,.32-.13,.45-.16,.14-.04,.27-.05,.4-.04,.13,0,.25,.04,.36,.09,.11,.05,.22,.13,.32,.23,.12,.12,.22,.26,.28,.42,.06,.16,.09,.32,.09,.48,0,.17-.04,.33-.11,.5-.07,.17-.18,.33-.33,.49-.08,.08-.18,.16-.31,.25-.13,.09-.26,.18-.41,.26-.15,.08-.31,.16-.47,.22-.16,.07-.32,.12-.46,.15-.02,0-.05,0-.08,.01-.03,0-.07,0-.1,0-.04,0-.07,0-.11-.01-.03,0-.06-.01-.09-.02l-1.12-.44-.31,.31,1.66,1.46c.19-.1,.37-.21,.56-.32,.19-.11,.38-.23,.56-.36,.18-.12,.36-.26,.54-.4,.18-.14,.34-.29,.49-.44,.39-.4,.68-.8,.86-1.19,.18-.39,.28-.76,.3-1.1,.02-.35-.03-.66-.16-.96-.12-.29-.29-.54-.51-.75-.2-.19-.4-.33-.62-.43-.22-.09-.43-.15-.65-.17-.22-.02-.43,0-.64,.04-.21,.05-.41,.11-.59,.19-.15,.07-.3,.14-.43,.2-.13,.07-.26,.14-.38,.21-.12,.07-.25,.14-.37,.21-.12,.07-.25,.13-.38,.2-.18,.09-.35,.15-.5,.18-.15,.03-.29,.04-.42,.03-.13-.02-.25-.05-.37-.12-.11-.06-.22-.14-.32-.24-.09-.09-.16-.2-.21-.33-.05-.13-.07-.27-.07-.41,0-.15,.04-.29,.1-.44,.07-.15,.17-.29,.3-.43,.06-.06,.14-.14,.25-.22,.1-.08,.21-.16,.33-.23,.12-.07,.24-.14,.36-.2,.12-.06,.23-.09,.33-.11,.05,0,.11-.01,.18-.02,.07,0,.13,0,.18,.03l1.03,.42,.31-.31-1.47-1.43c-.15,.08-.31,.17-.47,.27Z"/><path class="cls-1" d="M96.28,84.27l1.73,1.17,.24-.36-.78-1.05s-.06-.09-.07-.14c-.01-.05,0-.1,.04-.16l.91-1.35,5.09,3.45c.07,.05,.11,.1,.13,.17,.02,.07,.02,.14,0,.22l-.28,.82,.3,.2,2.14-3.15-.3-.2-.66,.56c-.05,.04-.12,.07-.19,.08-.08,.01-.15,0-.22-.05l-5.09-3.45,.93-1.37c.04-.06,.08-.09,.13-.09s.1,0,.16,.01l1.26,.33,.24-.36-1.73-1.17-3.99,5.89Z"/><path class="cls-1" d="M104.24,72c-.16,.02-.33,.08-.5,.16-.17,.08-.34,.21-.51,.38-.17,.17-.34,.38-.51,.64-.17,.26-.33,.57-.49,.95l-1.37,3.18,.34,.14,.49-.59c.04-.05,.1-.09,.17-.12,.07-.02,.14-.02,.22,.01l5.43,2.33c.08,.03,.13,.08,.16,.15,.03,.07,.04,.14,.04,.21l-.08,.77,.33,.14,1.45-3.38-.33-.14-.54,.68c-.04,.06-.1,.1-.17,.11-.07,.02-.14,0-.22-.02l-2.33-1,.47-.6,2.98-.49c.15-.03,.28-.05,.39-.08,.11-.03,.21-.07,.29-.12,.08-.05,.16-.13,.22-.22,.07-.09,.14-.22,.2-.38l.72-1.68-.33-.14-.49,.6s-.07,.08-.12,.12c-.05,.04-.1,.07-.16,.1-.06,.03-.12,.06-.18,.08-.06,.02-.12,.04-.17,.05l-3.26,.63c.01-.17,.01-.37,0-.58-.02-.22-.07-.43-.16-.65-.09-.21-.21-.42-.38-.61-.17-.19-.4-.35-.69-.47-.14-.06-.29-.11-.45-.13-.16-.03-.32-.03-.48,0Zm.98,2.15c.15,.12,.27,.27,.37,.43s.15,.34,.16,.52c.02,.19-.02,.39-.11,.6-.02,.04-.04,.09-.07,.15-.03,.07-.07,.13-.1,.2-.04,.07-.07,.13-.1,.19-.03,.06-.06,.1-.08,.13l-2.8-1.2,.26-.6c.18-.42,.43-.7,.75-.83,.32-.13,.73-.09,1.21,.11,.18,.08,.35,.18,.51,.3Z"/><path class="cls-1" d="M105.38,64.17c-.31,.42-.53,.95-.66,1.58-.12,.58-.13,1.13-.03,1.63,.11,.5,.3,.95,.59,1.35,.29,.4,.65,.73,1.1,1,.44,.27,.94,.46,1.49,.58,.58,.12,1.14,.16,1.66,.1,.52-.06,.99-.21,1.4-.45,.42-.24,.77-.57,1.06-.99,.29-.42,.5-.93,.63-1.52,.09-.44,.12-.84,.09-1.22-.03-.38-.11-.72-.24-1.04-.13-.32-.3-.6-.51-.85-.21-.25-.45-.48-.71-.67-.26-.19-.55-.35-.86-.48-.31-.13-.62-.23-.94-.3-.54-.11-1.07-.15-1.58-.1-.51,.05-.98,.19-1.4,.41s-.79,.55-1.09,.97Zm2.43,.29c.44,0,.92,.07,1.44,.18,.45,.09,.85,.22,1.22,.38,.37,.16,.68,.35,.92,.57,.25,.22,.43,.46,.54,.74,.11,.28,.13,.57,.06,.89-.08,.36-.23,.66-.46,.88-.23,.22-.52,.39-.87,.49-.35,.1-.74,.15-1.19,.14-.45-.01-.92-.07-1.43-.18-.41-.09-.8-.21-1.16-.35-.36-.15-.67-.33-.93-.55-.26-.22-.44-.46-.57-.74-.12-.28-.15-.59-.07-.93,.08-.36,.23-.65,.45-.88,.23-.23,.51-.39,.85-.5,.34-.11,.73-.15,1.18-.15Z"/><path class="cls-1" d="M34.76,14.79s.08,.03,.13,.06l.92,.63,.28-.2-1.01-1.44-4.44,3.11,.17,.24,.61-.21c.06-.02,.13-.02,.19,0,.07,.02,.12,.06,.16,.12l2.99,4.27c.04,.06,.06,.12,.05,.19,0,.07-.03,.13-.07,.18l-.41,.51,.17,.24,4.77-3.34-1.09-1.55-.28,.2,.37,1.18c.02,.05,.02,.1,.02,.14,0,.04-.03,.08-.08,.11l-2.17,1.53-1.55-2.21,1.16-.82c.05-.04,.1-.05,.14-.04,.04,.01,.08,.03,.13,.06l.72,.46,.25-.18-1.42-2.02-.25,.18,.19,.85s.02,.09,0,.13c0,.04-.04,.08-.09,.12l-1.16,.82-1.39-1.99,1.83-1.28s.09-.05,.13-.03Z"/><path class="cls-1" d="M40.07,13.85c.05-.05,.11-.09,.16-.12,.07-.03,.14-.06,.21-.09,.07-.02,.15-.05,.22-.06,.08-.02,.15-.03,.22-.04,.07,0,.14-.01,.2-.01,.08,0,.15,.01,.23,.03,.08,.02,.14,.06,.2,.11l.43,.37,.37-.19-.7-1.21c-.11,.03-.22,.06-.32,.08-.1,.03-.21,.06-.31,.09-.11,.03-.22,.08-.35,.13-.12,.05-.26,.12-.42,.2-.26,.13-.48,.28-.67,.46-.19,.18-.34,.37-.44,.57-.11,.2-.16,.41-.18,.62-.01,.21,.03,.42,.13,.61,.08,.16,.17,.29,.28,.4,.11,.11,.22,.2,.35,.26,.13,.06,.26,.1,.41,.12,.14,.02,.3,.01,.45-.01,.13-.02,.25-.04,.37-.06,.12-.02,.26-.05,.43-.08,.11-.02,.22-.04,.33-.06,.11-.02,.21-.02,.31-.01,.1,0,.19,.03,.27,.08,.08,.04,.15,.11,.2,.21,.06,.12,.1,.23,.1,.32,0,.1,0,.18-.03,.26-.03,.08-.08,.15-.15,.21-.07,.06-.15,.11-.24,.16-.08,.04-.17,.07-.26,.1-.1,.03-.2,.05-.3,.07-.1,.02-.2,.03-.29,.04-.09,0-.17,.01-.23,.01-.04,0-.08,0-.12,0-.04,0-.09-.01-.13-.02-.04,0-.08-.02-.13-.04-.04-.02-.08-.04-.1-.07l-.41-.4-.35,.18,.63,1.25c.11-.02,.23-.04,.35-.06,.12-.02,.25-.05,.39-.08,.14-.03,.28-.08,.44-.13,.15-.05,.32-.13,.49-.21,.25-.13,.48-.28,.68-.45,.21-.18,.37-.37,.49-.58,.12-.21,.19-.44,.21-.68,.02-.24-.04-.49-.17-.74-.08-.17-.18-.3-.3-.39-.12-.09-.25-.16-.39-.2-.14-.04-.3-.06-.47-.06-.17,0-.34,.02-.52,.05-.09,.02-.2,.03-.33,.05-.13,.02-.27,.04-.41,.07-.09,.02-.18,.03-.26,.04-.09,0-.18,0-.26-.01-.08-.02-.16-.05-.24-.11-.07-.05-.14-.13-.19-.24-.05-.1-.08-.2-.08-.29,0-.09,.02-.17,.05-.24,.03-.07,.08-.13,.13-.19Z"/><path class="cls-1" d="M43.98,11.61c-.05,.08-.12,.16-.2,.23-.08,.07-.18,.14-.29,.21l.11,.29,.72-.27,1.15,3.08c.05,.15,.14,.27,.25,.36,.11,.09,.24,.15,.39,.19,.15,.04,.32,.04,.5,.02,.18-.02,.37-.07,.56-.14,.16-.06,.31-.13,.44-.21,.13-.08,.25-.17,.35-.26,.1-.09,.19-.17,.27-.25,.07-.08,.13-.14,.17-.19l-.11-.31-.11,.04s-.06,.05-.1,.07c-.04,.03-.08,.05-.12,.08-.04,.03-.09,.05-.14,.08-.05,.02-.1,.05-.15,.06-.07,.03-.16,.05-.27,.06-.1,.01-.21,.01-.31,0-.1-.01-.2-.04-.29-.09-.09-.05-.15-.12-.18-.21l-1.06-2.85,1.41-.53-.04-.55-1.56,.58-.48-1.3-1.03,.58,.18,.58c.04,.14,.06,.26,.05,.36,0,.1-.04,.19-.09,.28Z"/><path class="cls-1" d="M54.29,9.23c-.06-.09-.13-.16-.22-.22-.09-.06-.18-.1-.29-.12-.11-.02-.22-.03-.33,0-.11,.02-.21,.06-.3,.12-.09,.06-.17,.13-.23,.22-.06,.09-.1,.18-.13,.29-.02,.11-.03,.21,0,.32,.02,.12,.06,.22,.12,.31,.06,.09,.13,.17,.22,.23,.09,.06,.18,.1,.29,.13,.11,.02,.21,.03,.33,0,.11-.02,.21-.06,.31-.12,.09-.06,.17-.13,.23-.22,.06-.09,.1-.18,.13-.29,.03-.11,.03-.22,0-.33-.02-.11-.06-.21-.12-.3Z"/><path class="cls-1" d="M54.02,12.06c-.11,.02-.21,.06-.3,.12s-.17,.13-.23,.22c-.06,.09-.1,.18-.13,.29-.02,.11-.03,.22,0,.33,.02,.11,.06,.21,.12,.3,.06,.09,.13,.17,.22,.22,.09,.06,.18,.1,.29,.13,.11,.03,.22,.03,.33,0,.11-.02,.21-.06,.31-.12,.09-.06,.17-.14,.23-.22,.06-.09,.1-.18,.13-.29,.03-.11,.03-.21,0-.32-.02-.12-.06-.22-.12-.31s-.14-.16-.22-.22c-.09-.06-.18-.1-.29-.12-.11-.02-.22-.03-.33,0Z"/><path class="cls-1" d="M63.63,11.06c.22-.12,.42-.24,.59-.37,.17-.13,.32-.26,.44-.41s.21-.31,.27-.48c.06-.18,.1-.37,.1-.59,0-.24-.05-.46-.17-.64-.12-.18-.28-.33-.48-.45-.2-.12-.43-.21-.69-.27-.26-.06-.52-.09-.79-.1-.24,0-.47,.01-.69,.05-.22,.04-.42,.09-.61,.15-.19,.06-.35,.12-.5,.19-.15,.07-.26,.12-.35,.17l.18,.98h.18c.09-.07,.18-.14,.28-.22,.09-.08,.19-.15,.29-.22,.1-.07,.2-.13,.3-.19,.1-.06,.2-.11,.31-.16,.1-.04,.21-.08,.31-.1,.11-.02,.21-.03,.32-.03,.12,0,.22,.03,.3,.09,.09,.05,.16,.12,.21,.21,.06,.09,.1,.19,.12,.3,.03,.11,.04,.23,.03,.35,0,.24-.06,.45-.17,.66-.11,.2-.28,.41-.51,.62-.23,.21-.52,.44-.87,.7-.35,.25-.78,.55-1.27,.88v.67s4.49,.1,4.49,.1l.17-1.88h-.33s-.21,.52-.21,.52c-.03,.07-.07,.13-.12,.18-.06,.05-.14,.08-.25,.08l-1.81-.04h-.72c.32-.14,.62-.27,.89-.38,.27-.12,.52-.24,.75-.36Z"/><path class="cls-1" d="M68.51,13.3c.3,.18,.64,.3,1.03,.37,.42,.07,.8,.07,1.15,0,.35-.08,.66-.21,.92-.41,.27-.19,.48-.43,.66-.72,.17-.29,.29-.61,.35-.96,.06-.33,.06-.65,.01-.98-.05-.32-.16-.62-.33-.89-.17-.27-.41-.5-.71-.7-.3-.2-.67-.34-1.11-.41-.41-.07-.79-.07-1.14,0-.35,.08-.66,.21-.92,.4-.27,.19-.49,.43-.66,.72-.17,.29-.29,.61-.35,.97-.07,.38-.07,.74,0,1.07,.07,.33,.2,.63,.38,.89,.19,.26,.43,.48,.72,.66Zm.28-1.99c.01-.17,.03-.32,.06-.47,.02-.14,.06-.28,.1-.43,.04-.15,.09-.29,.15-.43,.06-.14,.13-.27,.21-.39,.08-.12,.17-.22,.27-.3,.1-.08,.21-.14,.34-.18,.12-.04,.26-.04,.41-.02,.22,.04,.4,.13,.53,.29,.13,.15,.23,.34,.29,.56,.06,.22,.09,.46,.09,.72,0,.26-.02,.52-.07,.77-.04,.21-.09,.43-.16,.65-.07,.22-.17,.42-.29,.6-.12,.18-.26,.32-.43,.42-.17,.1-.37,.13-.59,.09-.16-.03-.29-.08-.4-.17-.11-.08-.2-.19-.27-.31-.07-.12-.13-.26-.16-.42-.04-.15-.06-.31-.07-.48,0-.16,0-.33,0-.49Z"/><path class="cls-1" d="M77.22,12.48c-.16,.16-.39,.31-.67,.44-.28,.14-.63,.27-1.04,.41-.41,.14-.9,.29-1.47,.47l-.21,.63,4.27,1.43,.72-1.75-.32-.11-.36,.44c-.05,.06-.1,.1-.17,.14-.07,.04-.16,.04-.26,0l-1.72-.57-.69-.22c.35-.03,.67-.07,.96-.1,.3-.03,.57-.07,.82-.12,.25-.05,.47-.11,.68-.17,.2-.07,.38-.16,.54-.26,.16-.11,.29-.23,.4-.38s.2-.33,.27-.53c.08-.23,.09-.45,.03-.66-.06-.21-.17-.4-.32-.57-.15-.17-.35-.32-.58-.46-.23-.13-.47-.24-.73-.33-.23-.08-.46-.13-.68-.15-.22-.03-.43-.04-.63-.04-.2,0-.37,.01-.53,.03-.16,.02-.29,.04-.39,.06l-.11,.99,.17,.06c.11-.04,.22-.09,.33-.13,.11-.04,.23-.09,.34-.12,.11-.04,.23-.07,.34-.1,.11-.03,.23-.05,.34-.06,.11-.01,.22-.01,.33,0,.11,0,.21,.03,.32,.06,.11,.04,.2,.09,.27,.17,.07,.08,.11,.17,.14,.26,.03,.1,.04,.21,.03,.32,0,.11-.03,.23-.07,.34-.07,.22-.19,.42-.36,.58Z"/><path class="cls-1" d="M81.16,16.41c-.03,.06-.07,.11-.13,.14-.05,.03-.12,.03-.18,.02l-.83-.2-.13,.26,3.03,1.47,.13-.26-.62-.5c-.05-.04-.08-.09-.1-.15-.01-.06,0-.12,.03-.19l1.18-2.42c.05-.1,.1-.21,.17-.34,.06-.12,.13-.25,.19-.37,.06-.12,.13-.25,.19-.36,.06-.12,.12-.22,.17-.31l-.73-.35h-2s-.13,.26-.13,.26l1.23,.28-.3,.59-1.18,2.43Z"/><polygon class="cls-1" points="26.6 87.82 26 91.11 29.29 90.51 29.89 87.22 26.6 87.82"/><polygon class="cls-1" points="112.52 57.23 109.87 55.18 107.02 56.94 109.67 58.98 112.52 57.23"/><path class="cls-1" d="M29.68,22.85c0-.55-.44-.99-.99-.99s-.99,.44-.99,.99,.44,.99,.99,.99,.99-.44,.99-.99Z"/><circle class="cls-1" cx="87.25" cy="17.49" r=".99"/></svg>